<svg width="217" height="66" viewBox="0 0 217 66" version="1.1" xmlns="http://www.w3.org/2000/svg" xmlns:xlink="http://www.w3.org/1999/xlink">
<title>Group 6</title>
<desc>Created using Figma</desc>
<g id="Canvas" transform="translate(-5528 883)">
<g id="Group 6">
<g id="Group 5">
<g id="Group 4">
<g id="Vector">
<use xlink:href="#path0_fill" transform="translate(5606.12 -868.074)" fill="#FFFFFF"/>
</g>
<g id="Vector">
<use xlink:href="#path1_fill" transform="translate(5633.03 -869.81)" fill="#FFFFFF"/>
</g>
<g id="Vector">
<use xlink:href="#path2_fill" transform="translate(5644.53 -859.272)" fill="#FFFFFF"/>
</g>
<g id="Vector">
<use xlink:href="#path3_fill" transform="translate(5671.46 -869.81)" fill="#FFFFFF"/>
</g>
<g id="Vector">
<use xlink:href="#path4_fill" transform="translate(5681.72 -858.508)" fill="#FFFFFF"/>
</g>
<g id="Vector">
<use xlink:href="#path5_fill" transform="translate(5709.08 -866.762)" fill="#FFFFFF"/>
</g>
<g id="Vector">
<use xlink:href="#path6_fill" transform="translate(5741.35 -866.762)" fill="#FFFFFF"/>
</g>
<g id="Vector (Stroke)">
<use xlink:href="#path7_fill" transform="translate(5545.51 -883)" fill="#F76226"/>
</g>
<g id="Vector (Stroke)">
<use xlink:href="#path8_fill" transform="matrix(0.866275 -0.499567 0.500433 0.865775 5523.16 -844.332)" fill="#D34AF4"/>
</g>
<g id="Vector (Stroke)">
<use xlink:href="#path9_fill" transform="matrix(0.473437 -0.880828 0.881284 0.472588 5523 -854.594)" fill="#0BC0D3"/>
</g>
</g>
</g>
</g>
</g>
<defs>
<path id="path0_fill" d="M 22.718 30.0952L 15.8529 30.0952L 15.8529 28.9947C 14.1683 30.0568 12.2085 30.6014 10.2168 30.5608C 8.8661 30.5799 7.52652 30.3146 6.28529 29.7822C 5.04406 29.2498 3.92899 28.4623 3.01271 27.4709C 2.03221 26.4624 1.26148 25.2698 0.745056 23.9621C 0.228631 22.6544 -0.0232595 21.2574 0.00393687 19.8519C -0.0347457 18.4449 0.211863 17.0446 0.728922 15.7353C 1.24598 14.4259 2.02281 13.2345 3.01271 12.2328C 3.92899 11.2414 5.04406 10.4539 6.28529 9.92148C 7.52652 9.38909 8.8661 9.1238 10.2168 9.14286C 12.2085 9.10228 14.1683 9.64686 15.8529 10.709L 15.8529 6.45875e-07L 22.718 6.45875e-07L 22.718 30.0952ZM 15.8529 23.0688L 15.8529 16.6349C 15.3278 16.0287 14.6765 15.5442 13.9446 15.2152C 13.2127 14.8862 12.4178 14.7207 11.6152 14.7302C 10.9641 14.718 10.3178 14.8437 9.71887 15.099C 9.11993 15.3544 8.58193 15.7336 8.14032 16.2116C 7.21839 17.1804 6.71594 18.4732 6.74188 19.8095C 6.72155 20.4643 6.83215 21.1165 7.06721 21.7281C 7.30227 22.3397 7.65707 22.8983 8.11085 23.3712C 8.56463 23.8442 9.10829 24.222 9.71001 24.4826C 10.3117 24.7432 10.9594 24.8813 11.6152 24.8889C 12.4151 24.9076 13.2093 24.7505 13.9416 24.4287C 14.6739 24.1069 15.3264 23.6281 15.8529 23.0265L 15.8529 23.0688Z"/>
<path id="path1_fill" d="M 0.00356965 4.19048C -0.0302532 3.38882 0.176804 2.59538 0.598106 1.91221C 1.01941 1.22905 1.63569 0.687393 2.36769 0.356917C 3.09969 0.026441 3.91394 -0.0777445 4.7057 0.0577605C 5.49746 0.193266 6.23053 0.562264 6.81063 1.1173C 7.39073 1.67233 7.79133 2.38802 7.96091 3.17231C 8.13048 3.9566 8.06128 4.77363 7.7622 5.51832C 7.46312 6.263 6.94783 6.90129 6.28261 7.35109C 5.6174 7.80088 4.83268 8.04162 4.02938 8.04233C 3.51093 8.05696 2.99474 7.96857 2.51078 7.78229C 2.02682 7.596 1.58472 7.31553 1.21018 6.95717C 0.835633 6.59881 0.536097 6.1697 0.328963 5.69475C 0.121828 5.2198 0.0112211 4.70848 0.00356965 4.19048L 0.00356965 4.19048ZM 7.5043 31.8307L 0.639224 31.8307L 0.639224 11.2593L 7.5043 11.2593L 7.5043 31.8307Z"/>
<path id="path2_fill" d="M 22.6956 20.9121C 22.7671 22.3016 22.5307 23.6897 22.0033 24.9774C 21.4758 26.2651 20.6704 27.4207 19.6445 28.3618C 17.4467 30.2433 14.6111 31.2127 11.72 31.0708C 8.91428 31.1821 6.15732 30.314 3.92263 28.6158C 2.91763 27.8593 2.09253 26.8902 1.50643 25.7779C 0.920332 24.6657 0.587742 23.4377 0.532475 22.1819L 7.35517 22.1819C 7.65181 24.256 9.09263 25.2719 11.6352 25.2719C 14.1779 25.2719 15.7882 23.7481 15.7882 21.0391L 15.7882 19.092C 14.0892 20.0706 12.1553 20.5681 10.1944 20.5311C 8.85884 20.5522 7.53267 20.3045 6.29497 19.8027C 5.05728 19.3009 3.9334 18.5554 2.99035 17.6105C 2.03165 16.7016 1.27166 15.6044 0.758224 14.3879C 0.244788 13.1713 -0.0109839 11.8618 0.0070046 10.5417C -0.044857 9.14314 0.191708 7.74887 0.702006 6.44547C 1.2123 5.14207 1.98544 3.95738 2.97339 2.96499C 3.91424 2.00244 5.04275 1.24288 6.28915 0.733245C 7.53555 0.223613 8.87335 -0.0252551 10.2199 0.00202312C 12.191 -0.026756 14.1301 0.501481 15.8136 1.52583L 15.8136 0.7216L 22.6787 0.7216L 22.6956 20.9121ZM 15.8306 13.166L 15.8306 7.49409C 15.3081 6.88469 14.6573 6.39799 13.9248 6.06874C 13.1923 5.73948 12.396 5.57579 11.5929 5.58933C 10.9397 5.56739 10.2891 5.68114 9.68229 5.92338C 9.07544 6.16563 8.52556 6.53109 8.06745 6.99662C 7.60935 7.46215 7.253 8.01762 7.02097 8.62785C 6.78895 9.23808 6.6863 9.88979 6.71952 10.5417C 6.72802 11.1312 6.85636 11.7128 7.09676 12.2513C 7.33715 12.7897 7.68459 13.2737 8.11797 13.674C 8.57491 14.1261 9.11765 14.4826 9.71436 14.7225C 10.3111 14.9623 10.9497 15.0808 11.5929 15.0708C 12.396 15.0843 13.1923 14.9206 13.9248 14.5914C 14.6573 14.2621 15.3081 13.7754 15.8306 13.166L 15.8306 13.166Z"/>
<path id="path3_fill" d="M 0.00357482 4.19048C -0.030248 3.38882 0.176803 2.59538 0.598104 1.91221C 1.01941 1.22905 1.63569 0.687393 2.36769 0.356917C 3.09969 0.026441 3.91393 -0.0777445 4.70569 0.0577605C 5.49745 0.193266 6.23054 0.562264 6.81064 1.1173C 7.39074 1.67233 7.79134 2.38802 7.96091 3.17231C 8.13049 3.9566 8.06128 4.77363 7.76219 5.51832C 7.46311 6.263 6.94783 6.90129 6.28262 7.35109C 5.61741 7.80088 4.83269 8.04162 4.02939 8.04233C 3.51094 8.05696 2.99474 7.96857 2.51077 7.78229C 2.02681 7.596 1.58473 7.31553 1.21018 6.95717C 0.835638 6.59881 0.536089 6.1697 0.328955 5.69475C 0.121821 5.2198 0.0112263 4.70848 0.00357482 4.19048L 0.00357482 4.19048ZM 7.50429 31.8307L 0.63923 31.8307L 0.63923 11.2593L 7.50429 11.2593L 7.50429 31.8307Z"/>
<path id="path4_fill" d="M 23.3921 20.5291L 15.849 20.5291L 11.7384 14.6032L 7.62785 20.5291L -4.13838e-06 20.5291L 7.20408 10.2857L -4.13838e-06 0L 7.83974 0L 11.696 5.41799L 15.51 0L 23.3497 0L 16.2134 10.2857L 23.3921 20.5291Z"/>
<path id="path5_fill" d="M 24.5482 16.5079C 24.68 19.9353 23.4631 23.2779 21.158 25.8201C 18.7651 28.1151 15.5763 29.3968 12.2589 29.3968C 8.94144 29.3968 5.75259 28.1151 3.35969 25.8201C 1.06761 23.2727 -0.134178 19.9298 0.0119158 16.5079L 0.0119158 0L 3.02068 0L 3.02068 16.5079C 2.9229 19.1548 3.83124 21.7405 5.5633 23.746C 6.43248 24.6421 7.47307 25.3545 8.62326 25.841C 9.77345 26.3276 11.0098 26.5783 12.2589 26.5783C 13.5079 26.5783 14.7443 26.3276 15.8945 25.841C 17.0447 25.3545 18.0853 24.6421 18.9544 23.746C 20.7169 21.7557 21.6428 19.1631 21.5394 16.5079L 21.5394 0L 24.5058 0L 24.5482 16.5079Z"/>
<path id="path6_fill" d="M 3.00877 28.7831L 1.03459e-06 28.7831L 1.03459e-06 0L 3.00877 0L 3.00877 28.7831Z"/>
<path id="path7_fill" fill-rule="evenodd" d="M 5.31447 10.7113C 3.27853 16.3676 2 24.2477 2 33C 2 41.7523 3.27853 49.6324 5.31447 55.2887C 6.33397 58.1212 7.52447 60.3427 8.79628 61.8372C 10.0715 63.3357 11.333 64 12.5181 64C 13.7031 64 14.9646 63.3357 16.2398 61.8372C 17.5117 60.3427 18.7022 58.1212 19.7217 55.2887C 21.7576 49.6324 23.0361 41.7523 23.0361 33C 23.0361 24.2477 21.7576 16.3676 19.7217 10.7113C 18.7022 7.87883 17.5117 5.6573 16.2398 4.16281C 14.9646 2.66429 13.7031 2 12.5181 2C 11.333 2 10.0715 2.66429 8.79628 4.16281C 7.52447 5.6573 6.33397 7.87883 5.31447 10.7113ZM 7.27315 2.86663C 8.75393 1.12657 10.5225 0 12.5181 0C 14.5137 0 16.2822 1.12657 17.763 2.86663C 19.2472 4.61071 20.5386 7.07548 21.6035 10.0339C 23.7362 15.9593 25.0361 24.0791 25.0361 33C 25.0361 41.9209 23.7362 50.0407 21.6035 55.9661C 20.5386 58.9245 19.2472 61.3893 17.763 63.1334C 16.2822 64.8734 14.5137 66 12.5181 66C 10.5225 66 8.75393 64.8734 7.27315 63.1334C 5.78895 61.3893 4.49752 58.9245 3.43266 55.9661C 1.29988 50.0407 0 41.9209 0 33C 0 24.0791 1.29988 15.9593 3.43266 10.0339C 4.49752 7.07548 5.78895 4.61071 7.27315 2.86663Z"/>
<path id="path8_fill" fill-rule="evenodd" d="M 4.16434 8.79074C 2.6643 10.065 2 11.3252 2 12.5081C 2 13.691 2.6643 14.9511 4.16434 16.2254C 5.66021 17.4962 7.88382 18.6858 10.7189 19.7044C 16.3804 21.7387 24.2677 23.0162 33.0278 23.0162C 41.7878 23.0162 49.6751 21.7387 55.3367 19.7044C 58.1717 18.6858 60.3953 17.4962 61.8912 16.2254C 63.3912 14.9511 64.0555 13.691 64.0555 12.5081C 64.0555 11.3252 63.3912 10.065 61.8912 8.79074C 60.3953 7.51997 58.1717 6.33041 55.3367 5.31173C 49.6751 3.27745 41.7878 2 33.0278 2C 24.2677 2 16.3804 3.27745 10.7189 5.31173C 7.88382 6.33041 5.66021 7.51996 4.16434 8.79074ZM 10.0426 3.42955C 15.9728 1.29872 24.0994 0 33.0278 0C 41.9561 0 50.0827 1.29872 56.013 3.42955C 58.9738 4.49343 61.4405 5.78366 63.1861 7.2665C 64.9274 8.74581 66.0555 10.5131 66.0555 12.5081C 66.0555 14.503 64.9274 16.2704 63.1861 17.7497C 61.4405 19.2325 58.9738 20.5228 56.013 21.5866C 50.0827 23.7175 41.9561 25.0162 33.0278 25.0162C 24.0994 25.0162 15.9728 23.7175 10.0426 21.5866C 7.08172 20.5228 4.61497 19.2325 2.86946 17.7497C 1.12811 16.2704 0 14.503 0 12.5081C 0 10.5131 1.12811 8.74581 2.86946 7.2665C 4.61497 5.78366 7.08172 4.49343 10.0426 3.42955Z"/>
<path id="path9_fill" fill-rule="evenodd" d="M 5.31164 10.7191C 3.27741 16.3809 2 24.2684 2 33.0287C 2 41.7891 3.27741 49.6766 5.31164 55.3383C 6.33029 58.1735 7.51981 60.3971 8.79055 61.8931C 10.0648 63.3931 11.3249 64.0574 12.5077 64.0574C 13.6906 64.0574 14.9507 63.3931 16.2249 61.8931C 17.4957 60.3971 18.6852 58.1735 19.7038 55.3383C 21.7381 49.6766 23.0155 41.7891 23.0155 33.0287C 23.0155 24.2684 21.7381 16.3809 19.7038 10.7191C 18.6852 7.88399 17.4957 5.66032 16.2249 4.16439C 14.9507 2.6643 13.6906 2 12.5077 2C 11.3249 2 10.0648 2.6643 8.79055 4.16439C 7.51981 5.66032 6.33029 7.88399 5.31164 10.7191ZM 7.26627 2.86956C 8.74553 1.12817 10.5128 0 12.5077 0C 14.5027 0 16.27 1.12817 17.7492 2.86956C 19.232 4.61512 20.5222 7.08194 21.586 10.0429C 23.7168 15.9733 25.0155 24.1001 25.0155 33.0287C 25.0155 41.9574 23.7168 50.0842 21.586 56.0146C 20.5222 58.9755 19.232 61.4423 17.7492 63.1879C 16.27 64.9293 14.5027 66.0574 12.5077 66.0574C 10.5128 66.0574 8.74553 64.9293 7.26627 63.1879C 5.78348 61.4423 4.49328 58.9755 3.42944 56.0146C 1.29868 50.0842 0 41.9574 0 33.0287C 0 24.1001 1.29868 15.9733 3.42944 10.0429C 4.49328 7.08194 5.78348 4.61512 7.26627 2.86956Z"/>
</defs>
</svg>
