<svg width="190" height="56" viewBox="0 0 190 56" version="1.1" xmlns="http://www.w3.org/2000/svg" xmlns:xlink="http://www.w3.org/1999/xlink">
<g id="Canvas" fill="none">
<g id="logo-digix-ui">
<g id="Vector">
<path d="M 19.4826 25.5354L 13.5953 25.5354L 13.5953 24.6016C 12.1506 25.5028 10.4699 25.9648 8.76178 25.9304C 7.60344 25.9466 6.45464 25.7215 5.39018 25.2698C 4.32571 24.818 3.36945 24.1498 2.58366 23.3086C 1.74279 22.4529 1.08183 21.4411 0.638951 20.3315C 0.196072 19.2219 -0.0199457 18.0366 0.00337748 16.844C -0.0297962 15.6502 0.181692 14.4621 0.625115 13.3511C 1.06854 12.2402 1.73474 11.2293 2.58366 10.3793C 3.36945 9.53815 4.32571 8.86994 5.39018 8.41822C 6.45464 7.9665 7.60344 7.7414 8.76178 7.75758C 10.4699 7.72315 12.1506 8.18522 13.5953 9.08642L 13.5953 0L 19.4826 0L 19.4826 25.5354ZM 13.5953 19.5735L 13.5953 14.1145C 13.1449 13.6001 12.5864 13.189 11.9587 12.9099C 11.3311 12.6307 10.6493 12.4903 9.96106 12.4983C 9.40268 12.488 8.84842 12.5946 8.33477 12.8113C 7.82113 13.028 7.35975 13.3497 6.98102 13.7553C 6.1904 14.5773 5.7595 15.6742 5.78174 16.8081C 5.76431 17.3636 5.85916 17.9171 6.06074 18.436C 6.26233 18.9549 6.5666 19.4288 6.95575 19.8301C 7.34491 20.2314 7.81114 20.552 8.32717 20.7731C 8.8432 20.9942 9.39866 21.1114 9.96106 21.1178C 10.647 21.1338 11.3281 21.0005 11.9561 20.7274C 12.5841 20.4543 13.1437 20.0481 13.5953 19.5376L 13.5953 19.5735Z" transform="translate(71.2798 12.6644)" fill="#2C006A"/>
</g>
<g id="Vector_2">
<path d="M 0.00306128 3.55556C -0.0259448 2.87536 0.151625 2.20214 0.512928 1.62248C 0.874231 1.04283 1.40275 0.583242 2.0305 0.302838C 2.65825 0.0224348 3.35654 -0.065965 4.03554 0.0490089C 4.71455 0.163983 5.34322 0.477073 5.84071 0.94801C 6.3382 1.41895 6.68174 2.0262 6.82717 2.69166C 6.97259 3.35711 6.91325 4.05035 6.65676 4.68221C 6.40027 5.31406 5.95836 5.85564 5.38789 6.23729C 4.81741 6.61893 4.14445 6.82319 3.45555 6.82379C 3.01093 6.83621 2.56825 6.76121 2.15321 6.60315C 1.73817 6.44509 1.35904 6.20712 1.03783 5.90306C 0.716628 5.59899 0.45975 5.2349 0.282114 4.83191C 0.104478 4.42892 0.00962308 3.99507 0.00306128 3.55556L 0.00306128 3.55556ZM 6.43559 27.0079L 0.548191 27.0079L 0.548191 9.55331L 6.43559 9.55331L 6.43559 27.0079Z" transform="translate(94.3574 11.1919)" fill="#2C006A"/>
</g>
<g id="Vector_3">
<path d="M 19.4635 17.7436C 19.5247 18.9225 19.322 20.1003 18.8697 21.1929C 18.4174 22.2856 17.7267 23.2661 16.8468 24.0646C 14.9621 25.661 12.5302 26.4835 10.0509 26.3631C 7.64476 26.4575 5.28043 25.721 3.36399 24.2801C 2.50211 23.6382 1.79452 22.816 1.29189 21.8722C 0.789263 20.9284 0.504039 19.8865 0.456643 18.821L 6.30769 18.821C 6.56208 20.5808 7.79771 21.4428 9.97822 21.4428C 12.1587 21.4428 13.5397 20.1499 13.5397 17.8513L 13.5397 16.1992C 12.0827 17.0296 10.4242 17.4518 8.7426 17.4203C 7.59721 17.4382 6.4599 17.2281 5.39848 16.8023C 4.33705 16.3766 3.37323 15.744 2.56448 14.9422C 1.74231 14.1711 1.09056 13.2401 0.650241 12.2079C 0.209927 11.1757 -0.00941961 10.0646 0.00600704 8.94448C -0.0384687 7.75782 0.164406 6.5748 0.60203 5.46888C 1.03965 4.36297 1.70268 3.35778 2.54994 2.51575C 3.3568 1.69904 4.32459 1.05456 5.39348 0.622147C 6.46238 0.189732 7.60966 -0.0214286 8.7644 0.00171659C 10.4548 -0.022702 12.1177 0.425499 13.5615 1.29465L 13.5615 0.612267L 19.4489 0.612267L 19.4635 17.7436ZM 13.5761 11.1712L 13.5761 6.35862C 13.128 5.84155 12.5699 5.4286 11.9417 5.14923C 11.3135 4.86987 10.6307 4.73097 9.94188 4.74246C 9.38175 4.72384 8.82381 4.82036 8.30339 5.0259C 7.78296 5.23144 7.31139 5.54153 6.91853 5.93652C 6.52567 6.33152 6.22007 6.80283 6.02108 7.3206C 5.8221 7.83837 5.73407 8.39134 5.76256 8.94448C 5.76985 9.44465 5.87992 9.93815 6.08607 10.395C 6.29223 10.8519 6.59019 11.2626 6.96185 11.6022C 7.35372 11.9858 7.81916 12.2883 8.33089 12.4918C 8.84262 12.6953 9.39033 12.7958 9.94188 12.7874C 10.6307 12.7988 11.3135 12.6599 11.9417 12.3806C 12.5699 12.1012 13.128 11.6883 13.5761 11.1712L 13.5761 11.1712Z" transform="translate(104.225 20.1329)" fill="#2C006A"/>
</g>
<g id="Vector_4">
<path d="M 0.00306572 3.55556C -0.0259403 2.87536 0.151624 2.20214 0.512927 1.62248C 0.87423 1.04283 1.40275 0.583242 2.0305 0.302838C 2.65825 0.0224348 3.35654 -0.065965 4.03554 0.0490089C 4.71455 0.163983 5.34323 0.477073 5.84072 0.94801C 6.33821 1.41895 6.68176 2.0262 6.82718 2.69166C 6.97261 3.35711 6.91325 4.05035 6.65676 4.68221C 6.40027 5.31406 5.95837 5.85564 5.3879 6.23729C 4.81742 6.61893 4.14445 6.82319 3.45555 6.82379C 3.01094 6.83621 2.56825 6.76121 2.15321 6.60315C 1.73817 6.44509 1.35904 6.20712 1.03784 5.90306C 0.716633 5.59899 0.459743 5.2349 0.282108 4.83191C 0.104472 4.42892 0.00962752 3.99507 0.00306572 3.55556L 0.00306572 3.55556ZM 6.43559 27.0079L 0.548195 27.0079L 0.548195 9.55331L 6.43559 9.55331L 6.43559 27.0079Z" transform="translate(127.319 11.1919)" fill="#2C006A"/>
</g>
<g id="Vector_5">
<path d="M 20.0607 17.4186L 13.5919 17.4186L 10.0667 12.3906L 6.54154 17.4186L -3.54901e-06 17.4186L 6.17812 8.72727L -3.54901e-06 0L 6.72325 0L 10.0304 4.59708L 13.3011 0L 20.0244 0L 13.9044 8.72727L 20.0607 17.4186Z" transform="translate(136.117 20.7811)" fill="#2C006A"/>
</g>
<g id="Vector_6">
<path d="M 21.0522 14.0067C 21.1652 16.9148 20.1216 19.751 18.1448 21.908C 16.0927 23.8553 13.358 24.9427 10.513 24.9427C 7.66805 24.9427 4.93334 23.8553 2.88123 21.908C 0.915568 19.7466 -0.115069 16.9102 0.0102189 14.0067L 0.0102189 0L 2.5905 0L 2.5905 14.0067C 2.50664 16.2525 3.28561 18.4465 4.77101 20.1481C 5.51641 20.9084 6.4088 21.5129 7.39518 21.9257C 8.38157 22.3385 9.44183 22.5513 10.513 22.5513C 11.5842 22.5513 12.6445 22.3385 13.6309 21.9257C 14.6173 21.5129 15.5097 20.9084 16.2551 20.1481C 17.7665 18.4594 18.5606 16.2596 18.4719 14.0067L 18.4719 0L 21.0158 0L 21.0522 14.0067Z" transform="translate(159.584 13.7778)" fill="#2C006A"/>
</g>
<g id="Vector_7">
<path d="M 2.58027 24.422L 0 24.422L 0 0L 2.58027 0L 2.58027 24.422Z" transform="translate(187.25 13.7778)" fill="#2C006A"/>
</g>
<g id="Vector (Stroke)">
<path fill-rule="evenodd" clip-rule="evenodd" d="M 4.55761 9.08834C 2.81162 13.8877 1.71517 20.5738 1.71517 28C 1.71517 35.4262 2.81162 42.1123 4.55761 46.9117C 5.43192 49.3149 6.45288 51.1999 7.54357 52.4679C 8.63718 53.7394 9.71906 54.303 10.7353 54.303C 11.7516 54.303 12.8335 53.7394 13.9271 52.4679C 15.0177 51.1999 16.0387 49.3149 16.913 46.9117C 18.659 42.1123 19.7555 35.4262 19.7555 28C 19.7555 20.5738 18.659 13.8877 16.913 9.08834C 16.0387 6.68507 15.0177 4.80013 13.9271 3.53208C 12.8335 2.26061 11.7516 1.69697 10.7353 1.69697C 9.71906 1.69697 8.63718 2.26061 7.54357 3.53208C 6.45288 4.80013 5.43192 6.68507 4.55761 9.08834ZM 6.23735 2.43229C 7.50725 0.955878 9.02392 0 10.7353 0C 12.4467 0 13.9634 0.955878 15.2333 2.43229C 16.5061 3.91212 17.6136 6.00343 18.5268 8.51362C 20.3559 13.5412 21.4706 20.4308 21.4706 28C 21.4706 35.5692 20.3559 42.4588 18.5268 47.4864C 17.6136 49.9966 16.5061 52.0879 15.2333 53.5677C 13.9634 55.0441 12.4467 56 10.7353 56C 9.02392 56 7.50725 55.0441 6.23735 53.5677C 4.96452 52.0879 3.85701 49.9966 2.9438 47.4864C 1.11476 42.4588 0 35.5692 0 28C 0 20.4308 1.11476 13.5412 2.9438 8.51362C 3.85701 6.00344 4.96452 3.91212 6.23735 2.43229Z" transform="translate(19.3074 0)" fill="#F76226"/>
</g>
<g id="Vector (Stroke)_2">
<path fill-rule="evenodd" clip-rule="evenodd" d="M 3.56185 7.47893C 2.27884 8.56307 1.71065 9.63514 1.71065 10.6415C 1.71065 11.648 2.27884 12.72 3.56185 13.8042C 4.84132 14.8853 6.74322 15.8973 9.1681 16.764C 14.0106 18.4947 20.7567 19.5815 28.2494 19.5815C 35.7421 19.5815 42.4883 18.4947 47.3308 16.764C 49.7556 15.8973 51.6575 14.8853 52.937 13.8042C 54.22 12.72 54.7882 11.648 54.7882 10.6415C 54.7882 9.63514 54.22 8.56307 52.937 7.47893C 51.6575 6.39778 49.7556 5.38574 47.3308 4.51908C 42.4883 2.78837 35.7421 1.70155 28.2494 1.70155C 20.7567 1.70155 14.0106 2.78837 9.1681 4.51908C 6.74322 5.38574 4.84132 6.39778 3.56185 7.47893ZM 8.58964 2.91777C 13.6619 1.10492 20.6128 0 28.2494 0C 35.8861 0 42.8369 1.10492 47.9092 2.91777C 50.4417 3.82289 52.5516 4.92058 54.0445 6.18214C 55.534 7.4407 56.4989 8.94431 56.4989 10.6415C 56.4989 12.3388 55.534 13.8424 54.0445 15.1009C 52.5516 16.3625 50.4417 17.4602 47.9092 18.3653C 42.8369 20.1782 35.8861 21.2831 28.2494 21.2831C 20.6128 21.2831 13.6619 20.1782 8.58964 18.3653C 6.05717 17.4602 3.94729 16.3625 2.45432 15.1009C 0.964901 13.8424 0 12.3388 0 10.6415C 0 8.94431 0.964901 7.4407 2.45432 6.18214C 3.94729 4.92058 6.05717 3.82289 8.58964 2.91777Z" transform="matrix(0.868567 -0.495572 0.504441 0.863446 0.138184 32.809)" fill="#D34AF4"/>
</g>
<g id="Vector (Stroke)_3">
<path fill-rule="evenodd" clip-rule="evenodd" d="M 4.51772 9.17088C 2.78755 14.0148 1.70107 20.7631 1.70107 28.2581C 1.70107 35.7531 2.78755 42.5014 4.51772 47.3453C 5.38412 49.771 6.39585 51.6735 7.47665 52.9533C 8.56047 54.2367 9.63219 54.8051 10.6382 54.8051C 11.6443 54.8051 12.716 54.2367 13.7998 52.9533C 14.8807 51.6735 15.8924 49.771 16.7588 47.3453C 18.4889 42.5014 19.5754 35.7531 19.5754 28.2581C 19.5754 20.7631 18.4889 14.0148 16.7588 9.17088C 15.8924 6.74524 14.8807 4.84275 13.7998 3.56289C 12.716 2.27948 11.6443 1.71112 10.6382 1.71112C 9.63219 1.71112 8.56047 2.27948 7.47665 3.56289C 6.39585 4.84275 5.38412 6.74524 4.51772 9.17088ZM 6.1802 2.45509C 7.43836 0.965215 8.94151 0 10.6382 0C 12.335 0 13.8381 0.965215 15.0963 2.45509C 16.3575 3.94852 17.4548 6.05904 18.3596 8.59229C 20.1719 13.6661 21.2765 20.6191 21.2765 28.2581C 21.2765 35.8971 20.1719 42.8501 18.3596 47.9239C 17.4548 50.4572 16.3575 52.5677 15.0963 54.0611C 13.8381 55.551 12.335 56.5162 10.6382 56.5162C 8.94151 56.5162 7.43836 55.551 6.1802 54.0611C 4.91904 52.5677 3.82169 50.4572 2.91685 47.9239C 1.10457 42.8501 0 35.8971 0 28.2581C 0 20.6191 1.10457 13.6661 2.91685 8.59229C 3.82169 6.05904 4.91904 3.94852 6.1802 2.45509Z" transform="matrix(0.477362 -0.878707 0.883369 0.468679 0 24.1023)" fill="#0BC0D3"/>
</g>
</g>
</g>
</svg>

