<svg width="101" height="56" viewBox="0 0 101 56" version="1.1" xmlns="http://www.w3.org/2000/svg" xmlns:xlink="http://www.w3.org/1999/xlink">
<g id="Canvas" fill="none">
<g id="logo-digix-ciano">
<g id="Group">
<g id="Vector">
<path d="M 29.65 0C 41.0591 0 69.873 36.5558 57.3578 47.9649C 45.2502 59.0248 11.5467 58.3263 1.94207 47.9649C -7.31329 37.9528 18.9393 0 29.65 0Z" fill="#0BC0D3"/>
</g>
<g id="Group_2">
<g id="Vector_2">
<path d="M 8.09117 0C 10.9435 0 13.3301 0.873148 15.1928 2.56123C 17.0555 4.24932 17.9286 6.40308 17.9286 9.08073C 17.9286 11.8166 16.9973 13.9704 15.1928 15.7167C 13.3301 17.4047 11.0017 18.2779 8.09117 18.2779L -4.44106e-07 18.2779L -4.44106e-07 0L 8.09117 0ZM 8.09117 14.145C 9.54641 14.145 10.827 13.6793 11.8166 12.6897C 12.8062 11.7002 13.3301 10.4778 13.3301 9.02253C 13.3301 7.62549 12.8062 6.40308 11.8166 5.47173C 10.827 4.48216 9.54641 4.01648 8.09117 4.01648L 4.54037 4.01648L 4.54037 14.0868L 8.09117 14.0868L 8.09117 14.145Z" transform="translate(21.7334 23.2839)" fill="white"/>
</g>
<g id="Vector_3">
<path d="M 19.0346 8.38222L 11.1763 8.38222C 10.1867 8.38222 9.37178 9.19715 9.37178 10.1867C 9.37178 11.1763 10.1867 11.9912 11.1763 11.9912L 14.4943 11.9912C 13.5047 13.8539 11.9912 14.7853 9.83746 14.7853C 8.2658 14.7853 6.98518 14.2614 5.99561 13.2718C 5.00605 12.2823 4.54037 11.0599 4.54037 9.54641C 4.54037 7.91654 5.00605 6.63592 5.99561 5.64635C 6.98518 4.65679 8.20759 4.1329 9.77925 4.1329C 11.933 4.1329 13.3301 5.06425 14.0286 6.86876L 18.8018 6.86876C 18.4525 4.77321 17.4047 3.08512 15.7167 1.86271C 14.0286 0.640308 11.9912 -4.44106e-07 9.72104 -4.44106e-07C 6.92697 -4.44106e-07 4.59858 0.931357 2.73586 2.73586C 0.873146 4.54037 0 6.86876 0 9.66283C 0 12.3405 0.931356 14.4943 2.73586 16.2988C 4.54037 18.0451 6.81055 18.9182 9.54641 18.9764L 9.60462 18.9764C 9.66283 18.9764 9.66283 18.9764 9.72104 18.9764C 9.95388 18.9764 10.1867 18.9764 10.4196 18.9764C 20.5481 18.4525 19.0346 8.38222 19.0346 8.38222Z" transform="translate(50.6637 22.8765)" fill="white"/>
</g>
<g id="Vector_4">
<path d="M -8.88212e-07 2.21197C -8.88212e-07 0.989567 0.989568 4.44106e-07 2.21197 4.44106e-07C 3.43438 4.44106e-07 4.42395 0.989567 4.42395 2.21197L 4.42395 16.4152C 4.42395 17.6376 3.43438 18.6271 2.21197 18.6271C 0.989568 18.6271 -8.88212e-07 17.6376 -8.88212e-07 16.4152L -8.88212e-07 2.21197Z" transform="translate(42.8635 23.1093)" fill="white"/>
</g>
<g id="Vector_5">
<path d="M -8.88212e-07 2.21197C -8.88212e-07 0.989567 0.989564 4.44106e-07 2.21197 4.44106e-07C 3.43438 4.44106e-07 4.42395 0.989567 4.42395 2.21197L 4.42395 16.4152C 4.42395 17.6376 3.43438 18.6271 2.21197 18.6271C 0.989564 18.6271 -8.88212e-07 17.6376 -8.88212e-07 16.4152L -8.88212e-07 2.21197L -8.88212e-07 2.21197Z" transform="translate(73.4237 23.1093)" fill="white"/>
</g>
<g id="Vector_6">
<path d="M 3.14333 9.32813L 8.73147 3.79819C 9.60462 2.92504 9.60462 1.52801 8.73147 0.654861C 7.85833 -0.218286 6.46129 -0.218286 5.58815 0.654861L -1.77642e-06 6.1848L 3.14333 9.32813Z" transform="translate(91.236 23.0365)" fill="#0BC0D3"/>
</g>
<g id="Vector_7">
<path d="M 18.0014 14.8581L 3.79819 0.65486C 2.92505 -0.218287 1.528 -0.218287 0.654857 0.65486C -0.21829 1.52801 -0.21829 2.92504 0.654857 3.79819L 6.18479 9.32813L 0.654857 14.8581C -0.21829 15.7312 -0.21829 17.1282 0.654857 18.0014C 1.528 18.8745 2.92505 18.8745 3.79819 18.0014L 9.32813 12.4715L 14.8581 18.0014C 15.7312 18.8745 17.1282 18.8745 18.0014 18.0014C 18.8745 17.1282 18.8745 15.7312 18.0014 14.8581Z" transform="translate(81.9661 23.0947)" fill="white"/>
</g>
</g>
</g>
</g>
</g>
</svg>

